#N canvas 70 50 1312 645 10;
#X obj 122 169 metro;
#X obj 122 206 i;
#X obj 169 206 + 1;
#X msg 85 317 0;
#X obj 329 277 %;
#X obj 329 301 i;
#X obj 329 325 select 1;
#X obj 87 405 loadbang;
#X msg 85 134 0;
#X msg 122 134 1;
#X text 80 271 reset to 0;
#X obj 347 204 /;
#X floatatom 87 467 5 0 0 0 - - -, f 5;
#X obj 275 164 bng 15 250 50 0 empty empty empty 17 7 0 10 -262144
-1 -1;
#X obj 347 231 i;
#X floatatom 347 255 5 0 0 0 - - -, f 5;
#X msg 87 432 120;
#X text 61 24 This metro setup allows for potential non-quantized recording
;
#X obj 329 350 i;
#X obj 376 350 + 1;
#X msg 275 187 60000;
#X obj 275 130 receive tempo;
#X obj 87 501 send tempo;
#X floatatom 329 375 5 0 0 0 - - -, f 5;
#X floatatom 50 223 5 0 0 0 - - -, f 5;
#X obj 403 389 *;
#X floatatom 336 411 5 0 0 0 - - -, f 5;
#X obj 122 228 send ms;
#X obj 262 231 receive ms;
#X text 274 107 1/4 notes;
#X obj 25 169 receive set0;
#X obj 85 339 send set0;
#X obj 483 277 %;
#X obj 483 301 i;
#X obj 483 325 select 1;
#X obj 501 204 /;
#X obj 429 164 bng 15 250 50 0 empty empty empty 17 7 0 10 -262144
-1 -1;
#X obj 501 231 i;
#X floatatom 501 255 5 0 0 0 - - -, f 5;
#X obj 483 350 i;
#X obj 530 350 + 1;
#X obj 429 130 receive tempo;
#X floatatom 483 375 5 0 0 0 - - -, f 5;
#X obj 557 389 *;
#X floatatom 490 411 5 0 0 0 - - -, f 5;
#X obj 416 231 receive ms;
#X obj 384 277 receive set0;
#X text 274 107 1/4 notes;
#X text 432 104 1/8 note;
#X obj 638 277 %;
#X obj 638 301 i;
#X obj 638 325 select 1;
#X obj 656 204 /;
#X obj 584 164 bng 15 250 50 0 empty empty empty 17 7 0 10 -262144
-1 -1;
#X obj 656 231 i;
#X floatatom 656 255 5 0 0 0 - - -, f 5;
#X obj 638 350 i;
#X obj 685 350 + 1;
#X obj 584 130 receive tempo;
#X floatatom 638 375 5 0 0 0 - - -, f 5;
#X obj 712 389 *;
#X floatatom 645 411 5 0 0 0 - - -, f 5;
#X obj 571 231 receive ms;
#X obj 539 277 receive set0;
#X text 587 104 1/12 note;
#X obj 793 277 %;
#X obj 793 301 i;
#X obj 793 325 select 1;
#X obj 811 204 /;
#X obj 739 164 bng 15 250 50 0 empty empty empty 17 7 0 10 -262144
-1 -1;
#X obj 811 231 i;
#X floatatom 811 255 5 0 0 0 - - -, f 5;
#X obj 793 350 i;
#X obj 840 350 + 1;
#X obj 739 130 receive tempo;
#X floatatom 793 375 5 0 0 0 - - -, f 5;
#X obj 867 389 *;
#X floatatom 800 411 5 0 0 0 - - -, f 5;
#X obj 726 231 receive ms;
#X obj 694 277 receive set0;
#X text 743 104 1/16 note;
#X obj 948 277 %;
#X obj 948 301 i;
#X obj 948 325 select 1;
#X obj 966 204 /;
#X obj 894 164 bng 15 250 50 0 empty empty empty 17 7 0 10 -262144
-1 -1;
#X obj 966 231 i;
#X floatatom 966 255 5 0 0 0 - - -, f 5;
#X obj 948 350 i;
#X obj 995 350 + 1;
#X obj 894 130 receive tempo;
#X floatatom 948 375 5 0 0 0 - - -, f 5;
#X obj 1022 389 *;
#X floatatom 955 411 5 0 0 0 - - -, f 5;
#X obj 881 231 receive ms;
#X obj 849 277 receive set0;
#X text 897 104 1/24 note;
#X obj 1103 277 %;
#X obj 1103 301 i;
#X obj 1103 325 select 1;
#X obj 1121 204 /;
#X obj 1049 164 bng 15 250 50 0 empty empty empty 17 7 0 10 -262144
-1 -1;
#X obj 1121 231 i;
#X floatatom 1121 255 5 0 0 0 - - -, f 5;
#X obj 1103 350 i;
#X obj 1150 350 + 1;
#X obj 1049 130 receive tempo;
#X floatatom 1103 375 5 0 0 0 - - -, f 5;
#X obj 1177 389 *;
#X floatatom 1110 411 5 0 0 0 - - -, f 5;
#X obj 1036 231 receive ms;
#X obj 1004 277 receive set0;
#X text 1052 104 1/32 note;
#X obj 230 277 receive set0;
#X text 72 105 stop / start;
#X obj 85 294 loadbang;
#X text 82 381 Set tempo (loads at 120);
#X msg 429 187 30000;
#X msg 584 187 20000;
#X msg 739 187 15000;
#X msg 894 187 10000;
#X msg 1049 187 7500;
#X obj 403 411 s 1/4;
#X obj 557 410 s 1/8;
#X obj 712 411 s /12;
#X obj 867 411 s 1/16;
#X obj 1022 411 s 1/24;
#X obj 1177 411 s 1/32;
#X connect 0 0 1 0;
#X connect 1 0 2 0;
#X connect 1 0 24 0;
#X connect 1 0 27 0;
#X connect 2 0 1 1;
#X connect 3 0 31 0;
#X connect 4 0 5 0;
#X connect 5 0 6 0;
#X connect 6 0 18 0;
#X connect 7 0 16 0;
#X connect 8 0 0 0;
#X connect 9 0 0 0;
#X connect 11 0 14 0;
#X connect 12 0 22 0;
#X connect 13 0 20 0;
#X connect 14 0 15 0;
#X connect 15 0 4 1;
#X connect 15 0 25 1;
#X connect 16 0 12 0;
#X connect 18 0 19 0;
#X connect 18 0 23 0;
#X connect 19 0 18 1;
#X connect 20 0 11 0;
#X connect 21 0 11 1;
#X connect 21 0 13 0;
#X connect 23 0 25 0;
#X connect 25 0 26 0;
#X connect 25 0 122 0;
#X connect 28 0 4 0;
#X connect 30 0 1 0;
#X connect 32 0 33 0;
#X connect 33 0 34 0;
#X connect 34 0 39 0;
#X connect 35 0 37 0;
#X connect 36 0 117 0;
#X connect 37 0 38 0;
#X connect 38 0 32 1;
#X connect 38 0 43 1;
#X connect 39 0 40 0;
#X connect 39 0 42 0;
#X connect 40 0 39 1;
#X connect 41 0 35 1;
#X connect 41 0 36 0;
#X connect 42 0 43 0;
#X connect 43 0 44 0;
#X connect 43 0 123 0;
#X connect 45 0 32 0;
#X connect 46 0 39 0;
#X connect 46 0 33 0;
#X connect 49 0 50 0;
#X connect 50 0 51 0;
#X connect 51 0 56 0;
#X connect 52 0 54 0;
#X connect 53 0 118 0;
#X connect 54 0 55 0;
#X connect 55 0 49 1;
#X connect 55 0 60 1;
#X connect 56 0 57 0;
#X connect 56 0 59 0;
#X connect 57 0 56 1;
#X connect 58 0 52 1;
#X connect 58 0 53 0;
#X connect 59 0 60 0;
#X connect 60 0 61 0;
#X connect 60 0 124 0;
#X connect 62 0 49 0;
#X connect 63 0 56 0;
#X connect 63 0 50 0;
#X connect 65 0 66 0;
#X connect 66 0 67 0;
#X connect 67 0 72 0;
#X connect 68 0 70 0;
#X connect 69 0 119 0;
#X connect 70 0 71 0;
#X connect 71 0 65 1;
#X connect 71 0 76 1;
#X connect 72 0 73 0;
#X connect 72 0 75 0;
#X connect 73 0 72 1;
#X connect 74 0 68 1;
#X connect 74 0 69 0;
#X connect 75 0 76 0;
#X connect 76 0 77 0;
#X connect 76 0 125 0;
#X connect 78 0 65 0;
#X connect 79 0 72 0;
#X connect 79 0 66 0;
#X connect 81 0 82 0;
#X connect 82 0 83 0;
#X connect 83 0 88 0;
#X connect 84 0 86 0;
#X connect 85 0 120 0;
#X connect 86 0 87 0;
#X connect 87 0 81 1;
#X connect 87 0 92 1;
#X connect 88 0 89 0;
#X connect 88 0 91 0;
#X connect 89 0 88 1;
#X connect 90 0 84 1;
#X connect 90 0 85 0;
#X connect 91 0 92 0;
#X connect 92 0 93 0;
#X connect 92 0 126 0;
#X connect 94 0 81 0;
#X connect 95 0 88 0;
#X connect 95 0 82 0;
#X connect 97 0 98 0;
#X connect 98 0 99 0;
#X connect 99 0 104 0;
#X connect 100 0 102 0;
#X connect 101 0 121 0;
#X connect 102 0 103 0;
#X connect 103 0 97 1;
#X connect 103 0 108 1;
#X connect 104 0 105 0;
#X connect 104 0 107 0;
#X connect 105 0 104 1;
#X connect 106 0 100 1;
#X connect 106 0 101 0;
#X connect 107 0 108 0;
#X connect 108 0 109 0;
#X connect 108 0 127 0;
#X connect 110 0 97 0;
#X connect 111 0 104 0;
#X connect 111 0 98 0;
#X connect 113 0 18 0;
#X connect 113 0 5 0;
#X connect 115 0 3 0;
#X connect 117 0 35 0;
#X connect 118 0 52 0;
#X connect 119 0 68 0;
#X connect 120 0 84 0;
#X connect 121 0 100 0;
