#N canvas 38 57 1261 645 10;
#X obj 122 169 metro;
#X obj 122 206 i;
#X obj 169 206 + 1;
#X msg 85 387 0;
#X obj 509 277 %;
#X obj 509 301 i;
#X obj 509 325 select 1;
#X obj 87 475 loadbang;
#X msg 85 134 0;
#X msg 122 134 1;
#X text 80 341 reset to 0;
#X obj 527 204 /;
#X floatatom 87 537 5 0 0 0 - - -, f 5;
#X obj 455 164 bng 15 250 50 0 empty empty empty 17 7 0 10 -262144
-1 -1;
#X floatatom 527 255 5 0 0 0 - - -, f 5;
#X msg 87 502 120;
#X text 61 24 This metro setup allows for potential non-quantized recording
;
#X obj 509 350 i;
#X obj 556 350 + 1;
#X msg 455 187 60000;
#X obj 455 130 receive tempo;
#X obj 87 571 send tempo;
#X floatatom 50 223 5 0 0 0 - - -, f 5;
#X obj 583 389 *;
#X floatatom 583 419 5 0 0 0 - - -, f 5;
#X obj 122 228 send ms;
#X obj 442 231 receive ms;
#X text 454 107 1/4 notes;
#X obj 25 169 receive set0;
#X obj 85 409 send set0;
#X obj 843 277 %;
#X obj 843 301 i;
#X obj 843 325 select 1;
#X obj 861 204 /;
#X obj 789 164 bng 15 250 50 0 empty empty empty 17 7 0 10 -262144
-1 -1;
#X floatatom 861 255 5 0 0 0 - - -, f 5;
#X obj 843 350 i;
#X obj 890 350 + 1;
#X obj 789 130 receive tempo;
#X floatatom 843 375 5 0 0 0 - - -, f 5;
#X obj 917 389 *;
#X floatatom 916 419 5 0 0 0 - - -, f 5;
#X obj 776 231 receive ms;
#X obj 744 277 receive set0;
#X text 454 107 1/4 notes;
#X text 792 104 1/8 note;
#X obj 998 277 %;
#X obj 998 301 i;
#X obj 998 325 select 1;
#X obj 1016 204 /;
#X obj 944 164 bng 15 250 50 0 empty empty empty 17 7 0 10 -262144
-1 -1;
#X floatatom 1016 255 5 0 0 0 - - -, f 5;
#X obj 998 350 i;
#X obj 1045 350 + 1;
#X obj 944 130 receive tempo;
#X floatatom 998 375 5 0 0 0 - - -, f 5;
#X obj 1072 389 *;
#X floatatom 1092 467 5 0 0 0 - - -, f 5;
#X obj 931 231 receive ms;
#X obj 899 277 receive set0;
#X text 947 104 1/12 note;
#X obj 1153 277 %;
#X obj 1153 301 i;
#X obj 1153 325 select 1;
#X obj 1171 204 /;
#X obj 1099 164 bng 15 250 50 0 empty empty empty 17 7 0 10 -262144
-1 -1;
#X floatatom 1171 255 5 0 0 0 - - -, f 5;
#X obj 1153 350 i;
#X obj 1200 350 + 1;
#X obj 1099 130 receive tempo;
#X floatatom 1153 375 5 0 0 0 - - -, f 5;
#X obj 1227 389 *;
#X floatatom 1220 455 5 0 0 0 - - -, f 5;
#X obj 1086 231 receive ms;
#X obj 1054 277 receive set0;
#X text 1103 104 1/16 note;
#X obj 1308 277 %;
#X obj 1308 301 i;
#X obj 1308 325 select 1;
#X obj 1326 204 /;
#X obj 1254 164 bng 15 250 50 0 empty empty empty 17 7 0 10 -262144
-1 -1;
#X floatatom 1326 255 5 0 0 0 - - -, f 5;
#X obj 1308 350 i;
#X obj 1355 350 + 1;
#X obj 1254 130 receive tempo;
#X floatatom 1308 375 5 0 0 0 - - -, f 5;
#X obj 1382 389 *;
#X obj 1241 231 receive ms;
#X obj 1209 277 receive set0;
#X obj 683 277 %;
#X obj 683 301 i;
#X obj 683 325 select 1;
#X obj 701 204 /;
#X obj 629 164 bng 15 250 50 0 empty empty empty 17 7 0 10 -262144
-1 -1;
#X floatatom 701 255 5 0 0 0 - - -, f 5;
#X obj 683 350 i;
#X obj 730 350 + 1;
#X obj 629 130 receive tempo;
#X floatatom 683 375 5 0 0 0 - - -, f 5;
#X obj 757 389 *;
#X floatatom 755 422 5 0 0 0 - - -, f 5;
#X obj 616 231 receive ms;
#X obj 584 277 receive set0;
#X obj 410 277 receive set0;
#X text 72 105 stop / start;
#X obj 85 364 loadbang;
#X text 82 451 Set tempo (loads at 120);
#X msg 789 187 30000;
#X msg 944 187 20000;
#X msg 1099 187 15000;
#X obj 510 387 s 1/4;
#X obj 843 413 s 1/8;
#X obj 1152 413 s 1/16;
#X obj 992 414 s 1/12;
#X text 632 104 1/6 note;
#X msg 629 187 40000;
#X obj 681 405 s 1/6;
#X obj 353 277 %;
#X obj 353 301 i;
#X obj 353 325 select 1;
#X obj 371 204 /;
#X obj 299 164 bng 15 250 50 0 empty empty empty 17 7 0 10 -262144
-1 -1;
#X floatatom 371 255 5 0 0 0 - - -, f 5;
#X obj 353 350 i;
#X obj 400 350 + 1;
#X obj 299 130 receive tempo;
#X obj 427 389 *;
#X floatatom 301 403 5 0 0 0 - - -, f 5;
#X obj 286 231 receive ms;
#X obj 254 277 receive set0;
#X text 302 104 1/3 note;
#X msg 299 187 80000;
#X obj 352 402 s 1/3;
#X text 1257 104 1/192 note;
#X msg 1254 187 1250;
#X obj 1302 412 s 1/192;
#X obj 1326 231 float;
#X obj 1171 231 float;
#X obj 1016 231 float;
#X obj 861 231 float;
#X obj 701 231 float;
#X obj 527 231 float;
#X obj 371 231 float;
#X connect 0 0 1 0;
#X connect 1 0 2 0;
#X connect 1 0 22 0;
#X connect 1 0 25 0;
#X connect 2 0 1 1;
#X connect 3 0 29 0;
#X connect 4 0 5 0;
#X connect 5 0 6 0;
#X connect 6 0 17 0;
#X connect 7 0 15 0;
#X connect 8 0 0 0;
#X connect 9 0 0 0;
#X connect 11 0 141 0;
#X connect 12 0 21 0;
#X connect 13 0 19 0;
#X connect 14 0 4 1;
#X connect 14 0 23 1;
#X connect 15 0 12 0;
#X connect 17 0 18 0;
#X connect 17 0 23 0;
#X connect 17 0 110 0;
#X connect 18 0 17 1;
#X connect 19 0 11 0;
#X connect 20 0 11 1;
#X connect 20 0 13 0;
#X connect 23 0 24 0;
#X connect 26 0 4 0;
#X connect 28 0 1 0;
#X connect 30 0 31 0;
#X connect 31 0 32 0;
#X connect 32 0 36 0;
#X connect 33 0 139 0;
#X connect 34 0 107 0;
#X connect 35 0 30 1;
#X connect 35 0 40 1;
#X connect 36 0 37 0;
#X connect 36 0 39 0;
#X connect 37 0 36 1;
#X connect 38 0 33 1;
#X connect 38 0 34 0;
#X connect 39 0 40 0;
#X connect 39 0 111 0;
#X connect 40 0 41 0;
#X connect 42 0 30 0;
#X connect 43 0 36 0;
#X connect 43 0 31 0;
#X connect 46 0 47 0;
#X connect 47 0 48 0;
#X connect 48 0 52 0;
#X connect 49 0 138 0;
#X connect 50 0 108 0;
#X connect 51 0 46 1;
#X connect 51 0 56 1;
#X connect 52 0 53 0;
#X connect 52 0 55 0;
#X connect 53 0 52 1;
#X connect 54 0 49 1;
#X connect 54 0 50 0;
#X connect 55 0 56 0;
#X connect 55 0 113 0;
#X connect 56 0 57 0;
#X connect 58 0 46 0;
#X connect 59 0 52 0;
#X connect 59 0 47 0;
#X connect 61 0 62 0;
#X connect 62 0 63 0;
#X connect 63 0 67 0;
#X connect 64 0 137 0;
#X connect 65 0 109 0;
#X connect 66 0 61 1;
#X connect 66 0 71 1;
#X connect 67 0 68 0;
#X connect 67 0 70 0;
#X connect 68 0 67 1;
#X connect 69 0 64 1;
#X connect 69 0 65 0;
#X connect 70 0 71 0;
#X connect 70 0 112 0;
#X connect 71 0 72 0;
#X connect 73 0 61 0;
#X connect 74 0 67 0;
#X connect 74 0 62 0;
#X connect 76 0 77 0;
#X connect 77 0 78 0;
#X connect 78 0 82 0;
#X connect 79 0 136 0;
#X connect 80 0 134 0;
#X connect 81 0 76 1;
#X connect 81 0 86 1;
#X connect 82 0 83 0;
#X connect 82 0 85 0;
#X connect 83 0 82 1;
#X connect 84 0 79 1;
#X connect 84 0 80 0;
#X connect 85 0 86 0;
#X connect 85 0 135 0;
#X connect 87 0 76 0;
#X connect 88 0 82 0;
#X connect 88 0 77 0;
#X connect 89 0 90 0;
#X connect 90 0 91 0;
#X connect 91 0 95 0;
#X connect 92 0 140 0;
#X connect 93 0 115 0;
#X connect 94 0 89 1;
#X connect 94 0 99 1;
#X connect 95 0 96 0;
#X connect 95 0 98 0;
#X connect 96 0 95 1;
#X connect 97 0 92 1;
#X connect 97 0 93 0;
#X connect 98 0 99 0;
#X connect 98 0 116 0;
#X connect 99 0 100 0;
#X connect 101 0 89 0;
#X connect 102 0 95 0;
#X connect 102 0 90 0;
#X connect 103 0 17 0;
#X connect 103 0 5 0;
#X connect 105 0 3 0;
#X connect 107 0 33 0;
#X connect 108 0 49 0;
#X connect 109 0 64 0;
#X connect 115 0 92 0;
#X connect 117 0 118 0;
#X connect 118 0 119 0;
#X connect 119 0 123 0;
#X connect 120 0 142 0;
#X connect 121 0 131 0;
#X connect 122 0 117 1;
#X connect 122 0 126 1;
#X connect 123 0 124 0;
#X connect 123 0 132 0;
#X connect 123 0 126 0;
#X connect 123 0 127 0;
#X connect 124 0 123 1;
#X connect 125 0 120 1;
#X connect 125 0 121 0;
#X connect 128 0 117 0;
#X connect 129 0 123 0;
#X connect 129 0 118 0;
#X connect 131 0 120 0;
#X connect 134 0 79 0;
#X connect 136 0 81 0;
#X connect 137 0 66 0;
#X connect 138 0 51 0;
#X connect 139 0 35 0;
#X connect 140 0 94 0;
#X connect 141 0 14 0;
#X connect 142 0 122 0;
