#N canvas 462 58 868 645 10;
#X obj 122 169 metro;
#X obj 122 206 i;
#X obj 169 206 + 1;
#X msg 85 317 0;
#X obj 329 417 %;
#X obj 329 441 i;
#X obj 329 465 select 1;
#X obj 87 395 loadbang;
#X msg 85 134 0;
#X msg 122 134 1;
#X text 80 271 reset to 0;
#X obj 347 344 /;
#X floatatom 87 457 5 0 0 0 - - -, f 5;
#X obj 248 233 bng 15 250 50 0 empty empty empty 17 7 0 10 -262144
-1 -1;
#X obj 347 371 i;
#X floatatom 347 395 5 0 0 0 - - -, f 5;
#X msg 87 422 120;
#X text 82 373 Set tempo to 120;
#X text 61 24 This metro setup allows for potential non-quantized recording
;
#X obj 329 490 i;
#X obj 376 490 + 1;
#X msg 248 256 60000;
#X obj 248 199 receive tempo;
#X obj 87 491 send tempo;
#X floatatom 329 515 5 0 0 0 - - -, f 5;
#X floatatom 50 223 5 0 0 0 - - -, f 5;
#X obj 403 529 *;
#X floatatom 403 555 5 0 0 0 - - -, f 5;
#X obj 122 228 send ms;
#X obj 262 371 receive ms;
#X text 247 176 1/4 notes;
#X obj 25 169 receive set0;
#X obj 85 339 send set0;
#X obj 483 417 %;
#X obj 483 441 i;
#X obj 483 465 select 1;
#X obj 501 344 /;
#X obj 402 233 bng 15 250 50 0 empty empty empty 17 7 0 10 -262144
-1 -1;
#X obj 501 371 i;
#X floatatom 501 395 5 0 0 0 - - -, f 5;
#X obj 483 490 i;
#X obj 530 490 + 1;
#X msg 402 256 60000;
#X obj 402 199 receive tempo;
#X floatatom 483 515 5 0 0 0 - - -, f 5;
#X obj 557 529 *;
#X floatatom 557 555 5 0 0 0 - - -, f 5;
#X obj 416 371 receive ms;
#X obj 384 417 receive set0;
#X text 247 176 1/4 notes;
#X text 405 173 1/8 note;
#X obj 402 278 / 2;
#X obj 638 417 %;
#X obj 638 441 i;
#X obj 638 465 select 1;
#X obj 656 344 /;
#X obj 557 233 bng 15 250 50 0 empty empty empty 17 7 0 10 -262144
-1 -1;
#X obj 656 371 i;
#X floatatom 656 395 5 0 0 0 - - -, f 5;
#X obj 638 490 i;
#X obj 685 490 + 1;
#X msg 557 256 60000;
#X obj 557 199 receive tempo;
#X floatatom 638 515 5 0 0 0 - - -, f 5;
#X obj 712 529 *;
#X floatatom 712 555 5 0 0 0 - - -, f 5;
#X obj 571 371 receive ms;
#X obj 539 417 receive set0;
#X text 560 173 1/12 note;
#X obj 557 278 / 3;
#X obj 793 417 %;
#X obj 793 441 i;
#X obj 793 465 select 1;
#X obj 811 344 /;
#X obj 712 233 bng 15 250 50 0 empty empty empty 17 7 0 10 -262144
-1 -1;
#X obj 811 371 i;
#X floatatom 811 395 5 0 0 0 - - -, f 5;
#X obj 793 490 i;
#X obj 840 490 + 1;
#X msg 712 256 60000;
#X obj 712 199 receive tempo;
#X floatatom 793 515 5 0 0 0 - - -, f 5;
#X obj 867 529 *;
#X floatatom 867 555 5 0 0 0 - - -, f 5;
#X obj 726 371 receive ms;
#X obj 694 417 receive set0;
#X text 716 173 1/16 note;
#X obj 712 278 / 4;
#X obj 948 417 %;
#X obj 948 441 i;
#X obj 948 465 select 1;
#X obj 966 344 /;
#X obj 867 233 bng 15 250 50 0 empty empty empty 17 7 0 10 -262144
-1 -1;
#X obj 966 371 i;
#X floatatom 966 395 5 0 0 0 - - -, f 5;
#X obj 948 490 i;
#X obj 995 490 + 1;
#X msg 867 256 60000;
#X obj 867 199 receive tempo;
#X floatatom 948 515 5 0 0 0 - - -, f 5;
#X obj 1022 529 *;
#X floatatom 1022 555 5 0 0 0 - - -, f 5;
#X obj 881 371 receive ms;
#X obj 849 417 receive set0;
#X text 870 173 1/24 note;
#X obj 867 278 / 6;
#X obj 1103 417 %;
#X obj 1103 441 i;
#X obj 1103 465 select 1;
#X obj 1121 344 /;
#X obj 1022 233 bng 15 250 50 0 empty empty empty 17 7 0 10 -262144
-1 -1;
#X obj 1121 371 i;
#X floatatom 1121 395 5 0 0 0 - - -, f 5;
#X obj 1103 490 i;
#X obj 1150 490 + 1;
#X msg 1022 256 60000;
#X obj 1022 199 receive tempo;
#X floatatom 1103 515 5 0 0 0 - - -, f 5;
#X obj 1177 529 *;
#X floatatom 1177 555 5 0 0 0 - - -, f 5;
#X obj 1036 371 receive ms;
#X obj 1004 417 receive set0;
#X text 1025 173 1/32 note;
#X obj 1022 278 / 8;
#X obj 230 417 receive set0;
#X text 72 105 stop / start;
#X obj 85 294 loadbang;
#X connect 0 0 1 0;
#X connect 1 0 2 0;
#X connect 1 0 25 0;
#X connect 1 0 28 0;
#X connect 2 0 1 1;
#X connect 3 0 32 0;
#X connect 4 0 5 0;
#X connect 5 0 6 0;
#X connect 6 0 19 0;
#X connect 7 0 16 0;
#X connect 8 0 0 0;
#X connect 9 0 0 0;
#X connect 11 0 14 0;
#X connect 12 0 23 0;
#X connect 13 0 21 0;
#X connect 14 0 15 0;
#X connect 15 0 4 1;
#X connect 15 0 26 1;
#X connect 16 0 12 0;
#X connect 19 0 20 0;
#X connect 19 0 24 0;
#X connect 20 0 19 1;
#X connect 21 0 11 0;
#X connect 22 0 11 1;
#X connect 22 0 13 0;
#X connect 24 0 26 0;
#X connect 26 0 27 0;
#X connect 29 0 4 0;
#X connect 31 0 1 0;
#X connect 33 0 34 0;
#X connect 34 0 35 0;
#X connect 35 0 40 0;
#X connect 36 0 38 0;
#X connect 37 0 42 0;
#X connect 38 0 39 0;
#X connect 39 0 33 1;
#X connect 39 0 45 1;
#X connect 40 0 41 0;
#X connect 40 0 44 0;
#X connect 41 0 40 1;
#X connect 42 0 51 0;
#X connect 43 0 36 1;
#X connect 43 0 37 0;
#X connect 44 0 45 0;
#X connect 45 0 46 0;
#X connect 47 0 33 0;
#X connect 48 0 40 0;
#X connect 48 0 34 0;
#X connect 51 0 36 0;
#X connect 52 0 53 0;
#X connect 53 0 54 0;
#X connect 54 0 59 0;
#X connect 55 0 57 0;
#X connect 56 0 61 0;
#X connect 57 0 58 0;
#X connect 58 0 52 1;
#X connect 58 0 64 1;
#X connect 59 0 60 0;
#X connect 59 0 63 0;
#X connect 60 0 59 1;
#X connect 61 0 69 0;
#X connect 62 0 55 1;
#X connect 62 0 56 0;
#X connect 63 0 64 0;
#X connect 64 0 65 0;
#X connect 66 0 52 0;
#X connect 67 0 59 0;
#X connect 67 0 53 0;
#X connect 69 0 55 0;
#X connect 70 0 71 0;
#X connect 71 0 72 0;
#X connect 72 0 77 0;
#X connect 73 0 75 0;
#X connect 74 0 79 0;
#X connect 75 0 76 0;
#X connect 76 0 70 1;
#X connect 76 0 82 1;
#X connect 77 0 78 0;
#X connect 77 0 81 0;
#X connect 78 0 77 1;
#X connect 79 0 87 0;
#X connect 80 0 73 1;
#X connect 80 0 74 0;
#X connect 81 0 82 0;
#X connect 82 0 83 0;
#X connect 84 0 70 0;
#X connect 85 0 77 0;
#X connect 85 0 71 0;
#X connect 87 0 73 0;
#X connect 88 0 89 0;
#X connect 89 0 90 0;
#X connect 90 0 95 0;
#X connect 91 0 93 0;
#X connect 92 0 97 0;
#X connect 93 0 94 0;
#X connect 94 0 88 1;
#X connect 94 0 100 1;
#X connect 95 0 96 0;
#X connect 95 0 99 0;
#X connect 96 0 95 1;
#X connect 97 0 105 0;
#X connect 98 0 91 1;
#X connect 98 0 92 0;
#X connect 99 0 100 0;
#X connect 100 0 101 0;
#X connect 102 0 88 0;
#X connect 103 0 95 0;
#X connect 103 0 89 0;
#X connect 105 0 91 0;
#X connect 106 0 107 0;
#X connect 107 0 108 0;
#X connect 108 0 113 0;
#X connect 109 0 111 0;
#X connect 110 0 115 0;
#X connect 111 0 112 0;
#X connect 112 0 106 1;
#X connect 112 0 118 1;
#X connect 113 0 114 0;
#X connect 113 0 117 0;
#X connect 114 0 113 1;
#X connect 115 0 123 0;
#X connect 116 0 109 1;
#X connect 116 0 110 0;
#X connect 117 0 118 0;
#X connect 118 0 119 0;
#X connect 120 0 106 0;
#X connect 121 0 113 0;
#X connect 121 0 107 0;
#X connect 123 0 109 0;
#X connect 124 0 19 0;
#X connect 124 0 5 0;
#X connect 126 0 3 0;
