#N canvas 529 50 868 548 10;
#X obj 239 250 metro;
#X obj 239 196 t b b;
#X obj 239 287 i;
#X obj 286 287 + 1;
#X msg 187 250 0;
#X obj 239 327 %;
#X msg 297 195 1;
#X obj 239 361 i;
#X obj 239 394 select 1;
#X obj 350 124 loadbang;
#X msg 187 155 0;
#X msg 224 155 1;
#X text 174 128 start / stop;
#X text 105 251 reset to 0;
#X obj 350 244 60000;
#X obj 412 269 /;
#X floatatom 350 186 5 0 0 0 - - -, f 5;
#X obj 350 216 bng 15 250 50 0 empty empty empty 17 7 0 10 -262144
-1 -1;
#X obj 412 291 i;
#X floatatom 412 313 5 0 0 0 - - -, f 5;
#X msg 350 151 120;
#X obj 239 416 bng 15 250 50 0 empty empty empty 17 7 0 10 -262144
-1 -1;
#X text 419 125 Set tempo to 120;
#X text 61 24 This metro allows for potential non-quantized recording
;
#X connect 0 0 2 0;
#X connect 1 0 0 0;
#X connect 2 0 3 0;
#X connect 2 0 5 0;
#X connect 3 0 2 1;
#X connect 4 0 2 0;
#X connect 5 0 7 0;
#X connect 6 0 0 1;
#X connect 7 0 8 0;
#X connect 8 0 21 0;
#X connect 9 0 20 0;
#X connect 10 0 0 0;
#X connect 11 0 1 0;
#X connect 14 0 15 0;
#X connect 15 0 18 0;
#X connect 16 0 15 1;
#X connect 16 0 17 0;
#X connect 17 0 14 0;
#X connect 18 0 19 0;
#X connect 19 0 5 1;
#X connect 20 0 16 0;
