#N canvas 421 225 868 548 10;
#X obj 263 289 metro;
#X obj 295 194 /;
#X floatatom 354 153 5 0 0 0 - - -, f 5;
#X obj 354 93 loadbang;
#X obj 295 231 i;
#X msg 220 92 0;
#X obj 263 92 bng 15 250 50 0 empty empty empty 17 7 0 10 -262144 -1
-1;
#X msg 295 155 60000;
#X msg 354 123 120;
#X obj 263 115 t b b;
#X obj 263 326 i;
#X obj 310 326 + 1;
#X floatatom 263 360 5 0 0 0 - - -, f 5;
#X floatatom 359 356 5 0 0 0 - - -, f 5;
#X obj 359 325 loadbang 8;
#X obj 263 388 % 8;
#X floatatom 263 421 5 0 0 0 - - -, f 5;
#X msg 220 288 0;
#X connect 0 0 10 0;
#X connect 1 0 4 0;
#X connect 2 0 1 1;
#X connect 3 0 8 0;
#X connect 4 0 0 1;
#X connect 5 0 0 0;
#X connect 6 0 9 0;
#X connect 7 0 1 0;
#X connect 8 0 2 0;
#X connect 9 0 0 0;
#X connect 9 1 7 0;
#X connect 10 0 11 0;
#X connect 10 0 12 0;
#X connect 11 0 10 1;
#X connect 12 0 15 0;
#X connect 13 0 15 1;
#X connect 14 0 13 0;
#X connect 15 0 16 0;
#X connect 17 0 10 0;
