#N canvas -8 -8 1536 781 10;
#X obj 331 181 tgl 15 0 empty empty empty 17 7 0 10 -262144 -1 -1 0
1;
#X floatatom 391 181 5 0 0 0 - - -, f 5;
#X obj 331 225 f;
#X obj 373 225 + 1;
#X floatatom 364 317 5 0 0 0 - - -, f 5;
#X obj 405 80 s clock;
#N canvas 0 50 450 250 (subpatch) 0;
#X array notes 64 float 3;
#A 0 0 0 0 0 0 0 0 0 0 0 0 0 0 0 0 0 0 0 0 0 0 0 0 0 0 0 0 0 0 0 0
0 0 0 0 0 0 0 0 0 0 0 0 0 0 0 0 0 0 0 0 0 0 0 0 0 0 0 0 0 0 0 0 0;
#X coords 0 127 64 0 200 140 1 0 0;
#X restore 491 321 graph;
#X obj 540 120 r clock;
#X floatatom 540 178 5 0 0 0 - - -, f 5;
#X obj 331 203 metro 400;
#X obj 55 46 notein;
#X floatatom 31 91 5 0 0 0 - - -, f 5;
#X floatatom 82 81 5 0 0 0 - - -, f 5;
#X floatatom 152 87 5 0 0 0 - - -, f 5;
#X obj 331 256 % 8;
#X obj 331 225 f;
#X obj 373 225 + 1;
#N canvas 0 50 450 250 (subpatch) 0;
#X array poly 8 float 3;
#A 0 0 0 0 0 0 0 0 0;
#X coords 0 7 8 0 200 140 1 0 0;
#X restore 491 494 graph;
#X obj 227 347 tabread poly;
#X obj 245 378 s poly;
#X obj 331 278 t i i;
#X obj 217 537 r poly;
#X obj 364 349 s index;
#X obj 276 535 r index;
#X obj 251 193 bng 15 250 50 0 empty empty empty 17 7 0 10 -262144
-1 -1;
#X floatatom 200 378 5 0 0 0 - - -, f 5;
#X obj 217 591 +;
#X msg 127 247 1;
#X obj 127 414 +;
#X obj 127 466 tabwrite poly;
#X obj 215 441 r index;
#X obj 95 221 t b b;
#X obj 127 436 % 8;
#X obj 31 110 s note;
#X obj 95 197 r note;
#X obj 136 598 r note;
#X obj 276 557 * 8;
#X msg 498 267 \; poly const 0;
#X msg 499 227 \; notes const 0;
#X obj 540 156 tabread notes;
#X obj 136 628 tabwrite notes;
#X connect 0 0 9 0;
#X connect 1 0 9 1;
#X connect 2 0 3 0;
#X connect 2 0 14 0;
#X connect 3 0 2 1;
#X connect 4 0 22 0;
#X connect 7 0 39 0;
#X connect 9 0 2 0;
#X connect 10 0 11 0;
#X connect 10 1 12 0;
#X connect 10 2 13 0;
#X connect 11 0 33 0;
#X connect 14 0 20 0;
#X connect 15 0 16 0;
#X connect 16 0 15 1;
#X connect 18 0 25 0;
#X connect 18 0 19 0;
#X connect 20 0 18 0;
#X connect 20 1 4 0;
#X connect 21 0 26 0;
#X connect 23 0 36 0;
#X connect 24 0 2 0;
#X connect 25 0 28 1;
#X connect 26 0 40 1;
#X connect 27 0 28 0;
#X connect 28 0 32 0;
#X connect 30 0 29 1;
#X connect 31 0 14 0;
#X connect 31 1 27 0;
#X connect 32 0 29 0;
#X connect 34 0 31 0;
#X connect 35 0 40 0;
#X connect 36 0 26 1;
#X connect 39 0 8 0;
