#N canvas -6 453 688 234 10;
#X obj 188 73 poly-sequencer;
#X obj 188 17 tgl 15 0 empty empty empty 17 7 0 10 -262144 -1 -1 0
1;
#X obj 35 73 note-test;
#X obj 35 49 bng 15 250 50 0 empty empty empty 17 7 0 10 -262144 -1
-1;
#X obj 108 73 note-timer;
#X obj 296 73 sequencer-read;
#X text 33 102 to do: Replace metro objects with new-metro.pd give
all sends and receives dynamic variable names;
#X connect 1 0 0 0;
#X connect 1 0 5 0;
#X connect 3 0 2 0;
