#N canvas 720 98 715 443 10;
#X obj 228 144 notein, f 14;
#X floatatom 228 173 5 0 0 0 - - -, f 5;
#X floatatom 323 173 5 0 0 0 - - -, f 5;
#X floatatom 275 173 5 0 0 0 - - -, f 5;
#X obj 192 307 ctlin, f 14;
#X floatatom 192 336 5 0 0 0 - - -, f 5;
#X floatatom 239 336 5 0 0 0 - - -, f 5;
#X floatatom 287 336 5 0 0 0 - - -, f 5;
#X obj 228 254 tabwrite note_pitch;
#X obj 275 226 tabwrite note_velocity;
#X obj 323 198 tabwrite note_channel;
#X obj 192 417 tabwrite cc_number;
#X obj 239 389 tabwrite cc_value;
#X obj 287 361 tabwrite cc_chanel;
#X obj 499 119 hradio 15 1 0 8 empty empty empty 0 -8 0 10 -262144
-1 -1 0;
#X obj 467 143 route;
#X obj 117 42 bang;
#X obj 46 42 bang;
#X obj 187 42 bang;
#X obj 257 42 bang;
#X obj 327 42 bang;
#X obj 397 42 bang;
#X obj 467 42 bang;
#X obj 499 94 loadbang;
#X obj 46 65 pack 0 0;
#X obj 117 65 pack 1 0;
#X obj 187 65 pack 2 0;
#X obj 257 65 pack 3 0;
#X obj 327 65 pack 4 0;
#X obj 397 65 pack 5 0;
#X obj 467 65 pack 6 0;
#X obj 117 -12 r 1/4;
#X obj 187 -12 r 1/6;
#X obj 257 -12 r 1/8;
#X obj 327 -12 r 1/12;
#X obj 397 -12 r 1/16;
#X obj 46 -12 r 1/3;
#X obj 46 18 * 64;
#X obj 117 18 * 48;
#X obj 187 18 * 32;
#X obj 257 18 * 24;
#X obj 327 18 * 16;
#X obj 397 18 * 12;
#X obj 410 333 r 1/192;
#X obj 467 18 r 1/192;
#X obj 468 168 print;
#X floatatom 8 11 5 0 0 0 - - -, f 5;
#X connect 0 0 1 0;
#X connect 0 1 3 0;
#X connect 0 2 2 0;
#X connect 1 0 8 0;
#X connect 2 0 10 0;
#X connect 3 0 9 0;
#X connect 4 0 5 0;
#X connect 4 1 6 0;
#X connect 4 2 7 0;
#X connect 5 0 11 0;
#X connect 6 0 12 0;
#X connect 7 0 13 0;
#X connect 14 0 15 1;
#X connect 15 0 45 0;
#X connect 16 0 25 0;
#X connect 17 0 24 0;
#X connect 18 0 26 0;
#X connect 19 0 27 0;
#X connect 20 0 28 0;
#X connect 21 0 29 0;
#X connect 22 0 30 0;
#X connect 23 0 14 0;
#X connect 24 0 15 0;
#X connect 25 0 15 0;
#X connect 26 0 15 0;
#X connect 27 0 15 0;
#X connect 28 0 15 0;
#X connect 29 0 15 0;
#X connect 30 0 15 0;
#X connect 31 0 38 0;
#X connect 32 0 39 0;
#X connect 33 0 40 0;
#X connect 34 0 41 0;
#X connect 35 0 42 0;
#X connect 36 0 37 0;
#X connect 36 0 46 0;
#X connect 37 0 17 0;
#X connect 37 0 24 1;
#X connect 38 0 16 0;
#X connect 38 0 25 1;
#X connect 39 0 18 0;
#X connect 39 0 26 1;
#X connect 40 0 19 0;
#X connect 40 0 27 1;
#X connect 41 0 20 0;
#X connect 41 0 28 1;
#X connect 42 0 21 0;
#X connect 42 0 29 1;
#X connect 43 0 13 1;
#X connect 44 0 22 0;
#X connect 44 0 30 1;
