#N canvas 761 0 766 772 10;
#X obj 323 676 bng 15 250 50 0 empty empty empty 17 7 0 10 -262144
-1 -1;
#X obj 323 607 tgl 15 0 empty empty empty 17 7 0 10 -262144 -1 -1 0
1;
#X msg 601 84 120;
#X obj 323 645 metro 500;
#X msg 638 81 200;
#X msg 558 89 100;
#X msg 519 88 70;
#X floatatom 537 162 5 0 0 0 - - -, f 5;
#X obj 538 130 expr (60/$f1) * 62.5;
#X obj 407 560 expr ($f1*$f2);
#X msg 137 107 16;
#X msg 61 228 64;
#X obj 76 263 /;
#X obj 61 198 bang;
#X obj 94 162 t f f;
#X floatatom 80 298 5 0 0 0 - - -, f 5;
#X msg 180 107 12;
#X msg 223 107 8;
#X msg 266 107 6;
#X msg 309 107 4;
#X msg 352 107 3;
#X msg 395 107 2;
#X msg 438 107 1;
#X msg 94 107 64;
#X obj 478 221 bng 15 250 50 0 empty empty empty 17 7 0 10 -262144
-1 -1;
#X obj 146 200 outlet;
#X text 88 76 move these to inlet;
#X obj 323 709 outlet;
#X connect 0 0 27 0;
#X connect 1 0 3 0;
#X connect 2 0 8 0;
#X connect 3 0 0 0;
#X connect 4 0 8 0;
#X connect 5 0 8 0;
#X connect 6 0 8 0;
#X connect 7 0 9 1;
#X connect 7 0 24 0;
#X connect 8 0 7 0;
#X connect 9 0 3 1;
#X connect 10 0 14 0;
#X connect 11 0 12 0;
#X connect 12 0 15 0;
#X connect 13 0 11 0;
#X connect 14 0 13 0;
#X connect 14 1 12 1;
#X connect 14 1 25 0;
#X connect 15 0 9 0;
#X connect 16 0 14 0;
#X connect 17 0 14 0;
#X connect 18 0 14 0;
#X connect 19 0 14 0;
#X connect 20 0 14 0;
#X connect 21 0 14 0;
#X connect 22 0 14 0;
#X connect 23 0 14 0;
#X connect 24 0 15 0;
