#N canvas 0 50 1536 781 10;
#X obj 323 676 bng 15 250 50 0 empty empty empty 17 7 0 10 -262144
-1 -1;
#X obj 323 607 tgl 15 0 empty empty empty 17 7 0 10 -262144 -1 -1 0
1;
#X msg 601 84 120;
#X obj 323 645 metro 500;
#X msg 638 81 200;
#X msg 558 89 100;
#X msg 519 88 70;
#X floatatom 537 162 5 0 0 0 - - -, f 5;
#X obj 538 130 expr (60/$f1) * 62.5;
#X obj 407 560 expr ($f1*$f2);
#X msg 157 386 64;
#X obj 172 421 /;
#X obj 157 356 bang;
#X obj 190 320 t f f;
#X floatatom 176 456 5 0 0 0 - - -, f 5;
#X obj 478 221 bng 15 250 50 0 empty empty empty 17 7 0 10 -262144
-1 -1;
#X obj 62 152 outlet;
#X obj 323 709 outlet;
#X text 374 707 outlets bangs;
#X obj 318 580 inlet;
#X obj 190 121 inlet;
#X obj 469 72 inlet;
#X text 474 49 tempo;
#X text 185 96 resolution;
#X text 307 554 on off;
#X text 17 174 outlets resolution;
#X connect 0 0 17 0;
#X connect 1 0 3 0;
#X connect 2 0 8 0;
#X connect 3 0 0 0;
#X connect 4 0 8 0;
#X connect 5 0 8 0;
#X connect 6 0 8 0;
#X connect 7 0 9 1;
#X connect 7 0 15 0;
#X connect 8 0 7 0;
#X connect 9 0 3 1;
#X connect 10 0 11 0;
#X connect 11 0 14 0;
#X connect 12 0 10 0;
#X connect 13 0 12 0;
#X connect 13 1 11 1;
#X connect 14 0 9 0;
#X connect 15 0 14 0;
#X connect 19 0 1 0;
#X connect 20 0 16 0;
#X connect 20 0 13 0;
#X connect 21 0 8 0;
