#N canvas 0 50 766 772 10;
#X obj 139 68 notein, f 19;
#X floatatom 139 96 5 0 0 0 - - -, f 5;
#X floatatom 204 96 5 0 0 0 - - -, f 5;
#X floatatom 272 96 5 0 0 0 - - -, f 5;
#X obj 204 115 sel 0;
#X floatatom 227 235 10 0 0 0 - - -, f 10;
#X obj 227 193 bng 15 250 50 0 empty empty empty 17 7 0 10 -262144
-1 -1;
#X obj 259 193 bng 15 250 50 0 empty empty empty 17 7 0 10 -262144
-1 -1;
#X obj 227 213 timer;
#X obj 140 279 list;
#X floatatom 338 353 5 0 0 0 - - -, f 5;
#X floatatom 384 353 5 0 0 0 - - -, f 5;
#X floatatom 431 353 5 0 0 0 - - -, f 5;
#X floatatom 477 353 5 0 0 0 - - -, f 5;
#X obj 338 318 unpack f f f f f, f 27;
#X floatatom 524 353 5 0 0 0 - - -, f 5;
#X obj 140 328 list split 4, f 13;
#X obj 140 356 list prepend;
#X obj 339 93 r polyindex;
#X msg 87 328 clear;
#X text 343 298 for reference;
#X obj 140 383 coll sequencer;
#C restore;
#X text 283 506 to do: give coll dynamic variable name (change name
in sequencer-read.pd too);
#X obj 139 161 pack f f f f, f 29;
#X connect 0 0 1 0;
#X connect 0 1 2 0;
#X connect 0 2 3 0;
#X connect 1 0 23 0;
#X connect 2 0 4 0;
#X connect 3 0 23 2;
#X connect 4 0 6 0;
#X connect 4 1 7 0;
#X connect 4 1 23 1;
#X connect 5 0 9 0;
#X connect 6 0 8 1;
#X connect 7 0 8 0;
#X connect 8 0 5 0;
#X connect 9 0 14 0;
#X connect 9 0 16 0;
#X connect 14 0 10 0;
#X connect 14 1 11 0;
#X connect 14 2 12 0;
#X connect 14 3 13 0;
#X connect 14 4 15 0;
#X connect 16 0 17 0;
#X connect 16 1 17 1;
#X connect 17 0 21 0;
#X connect 18 0 23 3;
#X connect 19 0 21 0;
#X connect 23 0 9 1;
