#N canvas 761 50 766 772 10;
#X obj 331 50 tgl 15 0 empty empty empty 17 7 0 10 -262144 -1 -1 0
1;
#X floatatom 398 51 5 0 0 0 - - -, f 5;
#X obj 331 95 f;
#X obj 373 95 + 1;
#X floatatom 364 317 5 0 0 0 - - -, f 5;
#X obj 331 256 % 8;
#X obj 331 95 f;
#X obj 373 95 + 1;
#N canvas 0 50 450 250 (subpatch) 0;
#X array poly 8 float 3;
#A 0 0 0 0 1 1 0 0 0;
#X coords 0 7 8 0 200 140 1 0 0;
#X restore 495 340 graph;
#X obj 227 347 tabread poly;
#X obj 331 278 t i i;
#X obj 364 349 s index;
#X obj 190 510 r index;
#X obj 251 63 bng 15 250 50 0 empty empty empty 17 7 0 10 -262144 -1
-1;
#X floatatom 200 378 5 0 0 0 - - -, f 5;
#X obj 131 564 +;
#X msg 127 252 1;
#X obj 127 414 +;
#X obj 127 466 tabwrite poly;
#X obj 215 441 r index;
#X obj 95 219 t b b;
#X obj 127 436 % 8;
#X obj 190 532 * 8;
#X msg 498 267 \; poly const 0;
#X obj 131 586 s polyindex;
#X obj 44 155 notein;
#X obj 63 187 sel 0;
#X text 494 498 set up for 8 poly;
#X obj 331 25 inlet;
#X obj 245 378 s polynumber;
#X obj 91 510 r polynumber;
#X obj 490 194 inlet;
#X floatatom 490 216 5 0 0 0 - - -, f 5;
#X text 530 193 sequence length control;
#X obj 398 25 inlet;
#X obj 440 100 inlet;
#X obj 331 139 sel 0;
#X obj 331 117 % 1;
#X obj 331 74 metro 1000;
#X obj 331 161 bang;
#X obj 331 184 f;
#X obj 373 184 + 1;
#X obj 331 184 f;
#X obj 373 184 + 1;
#X text 480 100 resolution control;
#X text 396 589 To do: set metro to smallest bpm unit;
#X connect 0 0 38 0;
#X connect 1 0 38 1;
#X connect 2 0 3 0;
#X connect 2 0 37 0;
#X connect 3 0 2 1;
#X connect 4 0 11 0;
#X connect 5 0 10 0;
#X connect 6 0 7 0;
#X connect 7 0 6 1;
#X connect 9 0 14 0;
#X connect 9 0 29 0;
#X connect 10 0 9 0;
#X connect 10 1 4 0;
#X connect 12 0 22 0;
#X connect 13 0 2 0;
#X connect 14 0 17 1;
#X connect 15 0 24 0;
#X connect 16 0 17 0;
#X connect 17 0 21 0;
#X connect 19 0 18 1;
#X connect 20 0 5 0;
#X connect 20 1 16 0;
#X connect 21 0 18 0;
#X connect 22 0 15 1;
#X connect 25 1 26 0;
#X connect 26 1 20 0;
#X connect 28 0 0 0;
#X connect 30 0 15 0;
#X connect 31 0 32 0;
#X connect 32 0 5 1;
#X connect 34 0 1 0;
#X connect 35 0 37 1;
#X connect 36 0 39 0;
#X connect 37 0 36 0;
#X connect 38 0 2 0;
#X connect 39 0 40 0;
#X connect 40 0 41 0;
#X connect 40 0 5 0;
#X connect 41 0 40 1;
#X connect 42 0 43 0;
#X connect 43 0 42 1;
