#N canvas 412 65 766 772 10;
#X obj 344 175 f;
#X obj 386 175 + 1;
#X floatatom 377 397 5 0 0 0 - - -, f 5;
#X obj 344 336 % 8;
#X obj 344 175 f;
#X obj 386 175 + 1;
#N canvas 0 50 450 250 (subpatch) 0;
#X array poly 8 float 3;
#A 0 0 1 0 2 1 0 1 0;
#X coords 0 7 8 0 200 140 1 0 0;
#X restore 508 420 graph;
#X obj 240 427 tabread poly;
#X obj 377 429 s index;
#X obj 203 590 r index;
#X obj 317 153 bng 15 250 50 0 empty empty empty 17 7 0 10 -262144
-1 -1;
#X floatatom 213 458 5 0 0 0 - - -, f 5;
#X obj 144 644 +;
#X msg 140 332 1;
#X obj 140 494 +;
#X obj 140 546 tabwrite poly;
#X obj 228 521 r index;
#X obj 108 299 t b b;
#X obj 140 516 % 8;
#X obj 203 612 * 8;
#X msg 511 347 \; poly const 0;
#X obj 144 666 s polyindex;
#X obj 57 235 notein;
#X obj 76 267 sel 0;
#X text 507 578 set up for 8 poly;
#X obj 507 51 inlet;
#X obj 258 458 s polynumber;
#X obj 104 590 r polynumber;
#X obj 503 274 inlet;
#X floatatom 503 296 5 0 0 0 - - -, f 5;
#X text 543 273 sequence length control;
#X obj 561 51 inlet;
#X obj 453 180 inlet;
#X obj 344 219 sel 0;
#X obj 344 197 % 1;
#X obj 344 241 bang;
#X obj 344 264 f;
#X obj 386 264 + 1;
#X obj 344 264 f;
#X obj 386 264 + 1;
#X text 493 180 resolution control;
#X text 409 668 To do: set metro to smallest bpm unit add record button/filter
;
#X obj 344 358 t f f;
#X obj 284 95 new-metro;
#X obj 284 126 bng 15 250 50 0 empty empty empty 17 7 0 10 -262144
-1 -1;
#X obj 344 127 bng 15 250 50 0 empty empty empty 17 7 0 10 -262144
-1 -1;
#X msg 223 13 16;
#X msg 266 13 12;
#X msg 309 13 8;
#X msg 352 13 6;
#X msg 395 13 4;
#X msg 438 13 3;
#X msg 481 13 2;
#X msg 524 13 1;
#X msg 180 13 64;
#X text 11 13 move these to an inlet?;
#X text 600 50 tempo;
#X text 459 52 on off;
#X connect 0 0 1 0;
#X connect 0 0 34 0;
#X connect 1 0 0 1;
#X connect 2 0 8 0;
#X connect 3 0 42 0;
#X connect 4 0 5 0;
#X connect 5 0 4 1;
#X connect 7 0 11 0;
#X connect 7 0 26 0;
#X connect 9 0 19 0;
#X connect 10 0 0 0;
#X connect 11 0 14 1;
#X connect 12 0 21 0;
#X connect 13 0 14 0;
#X connect 14 0 18 0;
#X connect 16 0 15 1;
#X connect 17 0 3 0;
#X connect 17 1 13 0;
#X connect 18 0 15 0;
#X connect 19 0 12 1;
#X connect 22 1 23 0;
#X connect 23 1 17 0;
#X connect 25 0 43 1;
#X connect 27 0 12 0;
#X connect 28 0 29 0;
#X connect 29 0 3 1;
#X connect 31 0 43 2;
#X connect 32 0 34 1;
#X connect 33 0 35 0;
#X connect 34 0 33 0;
#X connect 35 0 36 0;
#X connect 36 0 37 0;
#X connect 36 0 3 0;
#X connect 37 0 36 1;
#X connect 38 0 39 0;
#X connect 39 0 38 1;
#X connect 42 0 7 0;
#X connect 42 1 2 0;
#X connect 43 0 44 0;
#X connect 43 1 45 0;
#X connect 45 0 0 0;
#X connect 46 0 43 0;
#X connect 47 0 43 0;
#X connect 48 0 43 0;
#X connect 49 0 43 0;
#X connect 50 0 43 0;
#X connect 51 0 43 0;
#X connect 52 0 43 0;
#X connect 53 0 43 0;
#X connect 54 0 43 0;
