#N canvas 256 139 1532 781 10;
#X obj 26 656 freeverb~;
#X msg 25 162 roomsize \$1;
#X msg 25 207 damping \$1;
#X msg 25 251 width \$1;
#X msg 25 295 wet \$1;
#X msg 25 339 dry \$1;
#X msg 59 362 print;
#X msg 78 401 freeze \$1;
#X msg 83 438 bypass \$1;
#X obj 83 419 tgl 15 0 empty empty empty 0 -6 0 8 -262144 -1 -1 0 1
;
#X obj 78 382 tgl 15 0 empty empty empty 0 -6 0 8 -262144 -1 -1 0 1
;
#X obj 48 314 hsl 60 18 0 1 0 1 empty empty dry 2 9 1 12 -225271 -1
-1 5600 0;
#X obj 37 272 hsl 60 18 0 1 0 1 empty empty wet 2 9 1 12 -225271 -1
-1 3400 0;
#X obj 37 228 hsl 60 18 0 1 0 1 empty empty width 2 9 1 12 -262131
-1 -1 1800 0;
#X obj 37 184 hsl 60 18 0 2 0 1 empty empty damping 2 9 1 12 -261689
-1 -1 4200 0;
#X obj 37 139 hsl 60 18 0.11 1.1 0 1 empty empty roomsize 2 9 1 12
-261689 -1 -1 800 0;
#X floatatom 7 143 3 0 0 0 - - -, f 3;
#X floatatom 7 188 3 0 0 0 - - -, f 3;
#X floatatom 7 233 3 0 0 0 - - -, f 3;
#X floatatom 7 276 3 0 0 0 - - -, f 3;
#X floatatom 7 320 3 0 0 0 - - -, f 3;
#X obj 100 594 adc~;
#X obj 28 690 dac~;
#X msg 492 287 roomsize \$1;
#X msg 492 332 damping \$1;
#X msg 492 376 width \$1;
#X msg 492 420 wet \$1;
#X msg 492 464 dry \$1;
#X msg 526 487 print;
#X msg 713 391 freeze \$1;
#X msg 527 514 bypass \$1;
#X obj 713 372 tgl 15 0 empty empty empty 0 -6 0 8 -262144 -1 -1 0
1;
#X obj 515 439 hsl 60 18 0 1 0 1 empty empty dry 2 9 1 12 -225271 -1
-1 5900 0;
#X obj 504 397 hsl 60 18 0 1 0 1 empty empty wet 2 9 1 12 -225271 -1
-1 5900 0;
#X obj 504 353 hsl 60 18 0 1 0 1 empty empty width 2 9 1 12 -262131
-1 -1 1600 0;
#X obj 504 309 hsl 60 18 0 2 0 1 empty empty damping 2 9 1 12 -261689
-1 -1 0 0;
#X obj 504 264 hsl 60 18 0.11 1.1 0 1 empty empty roomsize 2 9 1 12
-261689 -1 -1 3500 0;
#X floatatom 474 268 3 0 0 0 - - -, f 3;
#X floatatom 474 313 3 0 0 0 - - -, f 3;
#X floatatom 474 358 3 0 0 0 - - -, f 3;
#X floatatom 474 401 3 0 0 0 - - -, f 3;
#X floatatom 474 445 3 0 0 0 - - -, f 3;
#X obj 844 652 dac~;
#X obj 706 178 bng 15 250 50 0 empty empty empty 17 7 0 10 -262144
-1 -1;
#X obj 758 198 + 1;
#X obj 706 198 int 0;
#X floatatom 706 274 5 0 0 0 - - -, f 5;
#X floatatom 804 330 5 0 0 0 - - -, f 5;
#X obj 706 315 bng 15 250 50 0 empty empty empty 17 7 0 10 -262144
-1 -1;
#X obj 706 293 moses 1;
#X obj 804 371 bng 15 250 50 0 empty empty empty 17 7 0 10 -262144
-1 -1;
#X obj 804 349 moses 1;
#X obj 752 315 bng 15 250 50 0 empty empty empty 17 7 0 10 -262144
-1 -1;
#X obj 850 371 bng 15 250 50 0 empty empty empty 17 7 0 10 -262144
-1 -1;
#X msg 706 335 1;
#X msg 752 335 0;
#X msg 804 391 1;
#X msg 850 391 0;
#X obj 845 613 freeverb~;
#X msg 804 437 freeze \$1;
#X obj 804 418 tgl 15 0 empty empty empty 0 -6 0 8 -262144 -1 -1 1
1;
#X obj 840 547 dac~;
#X obj 841 508 freeverb~;
#X obj 712 546 adc~;
#X obj 706 220 % 2;
#X obj 804 278 + 1;
#X obj 804 300 % 2;
#X text 22 104 Channel 1 reverb;
#X text 506 19 Channel 2 reverb with freeze;
#X obj 435 57 ctlin, f 16;
#X obj 435 124 route 1;
#X obj 303 531 send params;
#X obj 845 586 receive params;
#X obj 841 481 receive params;
#X obj 435 146 route 15 16 17 18, f 32;
#X obj 435 168 s 1c15;
#X obj 490 168 s 1c16;
#X obj 545 168 s 1c17;
#X obj 600 168 s 1c18;
#X obj 599 400 r 1c16;
#X obj 706 148 r 1c15;
#X obj 600 358 r 1c17;
#X obj 596 270 r 1c18;
#X obj 353 147 print;
#X obj 435 79 list prepend;
#X obj 435 101 list prepend, f 16;
#X obj 600 380 / 127;
#X obj 599 422 / 127;
#X obj 596 292 / 127;
#X connect 0 0 22 0;
#X connect 0 1 22 1;
#X connect 1 0 0 0;
#X connect 2 0 0 0;
#X connect 3 0 0 0;
#X connect 4 0 0 0;
#X connect 5 0 0 0;
#X connect 6 0 0 0;
#X connect 7 0 0 0;
#X connect 8 0 0 0;
#X connect 9 0 8 0;
#X connect 10 0 7 0;
#X connect 11 0 5 0;
#X connect 11 0 20 0;
#X connect 12 0 4 0;
#X connect 12 0 19 0;
#X connect 13 0 3 0;
#X connect 13 0 18 0;
#X connect 14 0 2 0;
#X connect 14 0 17 0;
#X connect 15 0 1 0;
#X connect 15 0 16 0;
#X connect 21 0 0 0;
#X connect 21 0 0 1;
#X connect 23 0 71 0;
#X connect 24 0 71 0;
#X connect 25 0 71 0;
#X connect 26 0 71 0;
#X connect 27 0 71 0;
#X connect 28 0 71 0;
#X connect 29 0 58 0;
#X connect 30 0 71 0;
#X connect 31 0 29 0;
#X connect 32 0 27 0;
#X connect 32 0 41 0;
#X connect 33 0 26 0;
#X connect 33 0 40 0;
#X connect 34 0 25 0;
#X connect 34 0 39 0;
#X connect 35 0 24 0;
#X connect 35 0 38 0;
#X connect 36 0 23 0;
#X connect 36 0 37 0;
#X connect 43 0 45 0;
#X connect 44 0 45 1;
#X connect 45 0 44 0;
#X connect 45 0 64 0;
#X connect 46 0 49 0;
#X connect 47 0 51 0;
#X connect 48 0 54 0;
#X connect 49 0 48 0;
#X connect 49 1 52 0;
#X connect 50 0 56 0;
#X connect 51 0 50 0;
#X connect 51 1 53 0;
#X connect 52 0 55 0;
#X connect 53 0 57 0;
#X connect 54 0 31 0;
#X connect 55 0 31 0;
#X connect 56 0 60 0;
#X connect 57 0 60 0;
#X connect 58 0 42 0;
#X connect 58 1 42 1;
#X connect 59 0 62 0;
#X connect 60 0 59 0;
#X connect 62 0 61 0;
#X connect 62 1 61 1;
#X connect 63 1 58 0;
#X connect 63 1 62 0;
#X connect 63 1 58 1;
#X connect 63 1 62 1;
#X connect 64 0 65 0;
#X connect 64 0 46 0;
#X connect 65 0 66 0;
#X connect 66 0 47 0;
#X connect 69 0 84 0;
#X connect 69 1 84 1;
#X connect 69 2 85 1;
#X connect 70 0 74 0;
#X connect 72 0 58 0;
#X connect 73 0 62 0;
#X connect 74 0 75 0;
#X connect 74 1 76 0;
#X connect 74 2 77 0;
#X connect 74 3 78 0;
#X connect 79 0 87 0;
#X connect 80 0 43 0;
#X connect 81 0 86 0;
#X connect 82 0 88 0;
#X connect 84 0 85 0;
#X connect 85 0 70 0;
#X connect 86 0 33 0;
#X connect 87 0 32 0;
#X connect 88 0 35 0;
