#N canvas 1067 207 450 686 10;
#X obj 26 536 freeverb~;
#X msg 25 42 roomsize \$1;
#X msg 25 87 damping \$1;
#X msg 25 131 width \$1;
#X msg 25 175 wet \$1;
#X msg 25 219 dry \$1;
#X msg 59 242 print;
#X msg 78 281 freeze \$1;
#X msg 83 318 bypass \$1;
#X obj 83 299 tgl 15 0 empty empty empty 0 -6 0 8 -262144 -1 -1 0 1
;
#X obj 78 262 tgl 15 0 empty empty empty 0 -6 0 8 -262144 -1 -1 0 1
;
#X obj 48 194 hsl 60 18 0 1 0 1 empty empty dry 2 9 1 12 -225271 -1
-1 5100 0;
#X obj 37 152 hsl 60 18 0 1 0 1 empty empty wet 2 9 1 12 -225271 -1
-1 5300 0;
#X obj 37 108 hsl 60 18 0 1 0 1 empty empty width 2 9 1 12 -262131
-1 -1 500 0;
#X obj 37 64 hsl 60 18 0 2 0 1 empty empty damping 2 9 1 12 -261689
-1 -1 4600 0;
#X obj 37 19 hsl 60 18 0.11 1.1 0 1 empty empty roomsize 2 9 1 12 -261689
-1 -1 3400 0;
#X floatatom 7 23 3 0 0 0 - - -, f 3;
#X floatatom 7 68 3 0 0 0 - - -, f 3;
#X floatatom 7 113 3 0 0 0 - - -, f 3;
#X floatatom 7 156 3 0 0 0 - - -, f 3;
#X floatatom 7 200 3 0 0 0 - - -, f 3;
#X obj 100 474 adc~;
#X obj 28 570 dac~;
#X obj 213 538 freeverb~;
#X msg 212 44 roomsize \$1;
#X msg 212 89 damping \$1;
#X msg 212 133 width \$1;
#X msg 212 177 wet \$1;
#X msg 212 221 dry \$1;
#X msg 246 244 print;
#X msg 265 283 freeze \$1;
#X msg 270 320 bypass \$1;
#X obj 270 301 tgl 15 0 empty empty empty 0 -6 0 8 -262144 -1 -1 0
1;
#X obj 265 264 tgl 15 0 empty empty empty 0 -6 0 8 -262144 -1 -1 0
1;
#X obj 235 196 hsl 60 18 0 1 0 1 empty empty dry 2 9 1 12 -225271 -1
-1 2800 0;
#X obj 224 154 hsl 60 18 0 1 0 1 empty empty wet 2 9 1 12 -225271 -1
-1 1700 0;
#X obj 224 110 hsl 60 18 0 1 0 1 empty empty width 2 9 1 12 -262131
-1 -1 1600 0;
#X obj 224 66 hsl 60 18 0 2 0 1 empty empty damping 2 9 1 12 -261689
-1 -1 100 0;
#X obj 224 21 hsl 60 18 0.11 1.1 0 1 empty empty roomsize 2 9 1 12
-261689 -1 -1 500 0;
#X floatatom 194 25 3 0 0 0 - - -, f 3;
#X floatatom 194 70 3 0 0 0 - - -, f 3;
#X floatatom 194 115 3 0 0 0 - - -, f 3;
#X floatatom 194 158 3 0 0 0 - - -, f 3;
#X floatatom 194 202 3 0 0 0 - - -, f 3;
#X obj 215 572 dac~;
#X connect 0 0 22 0;
#X connect 0 0 22 1;
#X connect 1 0 0 0;
#X connect 2 0 0 0;
#X connect 3 0 0 0;
#X connect 4 0 0 0;
#X connect 5 0 0 0;
#X connect 6 0 0 0;
#X connect 7 0 0 0;
#X connect 8 0 0 0;
#X connect 9 0 8 0;
#X connect 10 0 7 0;
#X connect 11 0 5 0;
#X connect 11 0 20 0;
#X connect 12 0 4 0;
#X connect 12 0 19 0;
#X connect 13 0 3 0;
#X connect 13 0 18 0;
#X connect 14 0 2 0;
#X connect 14 0 17 0;
#X connect 15 0 1 0;
#X connect 15 0 16 0;
#X connect 21 0 0 0;
#X connect 21 1 23 0;
#X connect 23 0 44 0;
#X connect 23 0 44 1;
#X connect 24 0 23 0;
#X connect 25 0 23 0;
#X connect 26 0 23 0;
#X connect 27 0 23 0;
#X connect 28 0 23 0;
#X connect 29 0 23 0;
#X connect 30 0 23 0;
#X connect 31 0 23 0;
#X connect 32 0 31 0;
#X connect 33 0 30 0;
#X connect 34 0 28 0;
#X connect 34 0 43 0;
#X connect 35 0 27 0;
#X connect 35 0 42 0;
#X connect 36 0 26 0;
#X connect 36 0 41 0;
#X connect 37 0 25 0;
#X connect 37 0 40 0;
#X connect 38 0 24 0;
#X connect 38 0 39 0;
