#N canvas 761 0 766 772 10;
#X obj 39 283 table sampler 144000;
#X obj 192 120 adc~;
#X obj 192 179 tabwrite~ sampler;
#X obj 321 70 sel 1 0;
#X msg 307 104 stop;
#X obj 367 332 phasor~;
#X obj 371 459 dac~;
#X obj 371 372 *~ 1;
#X obj 368 412 tabread~ sampler;
#X obj 497 115 timer;
#X obj 357 131 t b f f;
#X obj 440 293 * 48;
#X obj 363 308 /;
#X msg 330 264 1000;
#X obj 317 35 tgl 15 0 empty empty empty 17 7 0 10 -262144 -1 -1 1
1;
#X floatatom 497 137 5 0 0 0 - - -, f 5;
#X connect 1 0 2 0;
#X connect 1 1 2 0;
#X connect 3 0 2 0;
#X connect 3 0 9 0;
#X connect 3 1 4 0;
#X connect 3 1 9 1;
#X connect 4 0 2 0;
#X connect 5 0 7 0;
#X connect 7 0 8 0;
#X connect 8 0 6 0;
#X connect 8 0 6 1;
#X connect 9 0 10 0;
#X connect 9 0 15 0;
#X connect 10 0 13 0;
#X connect 10 1 12 1;
#X connect 10 2 11 0;
#X connect 11 0 7 1;
#X connect 12 0 5 0;
#X connect 13 0 12 0;
#X connect 14 0 3 0;
