#N canvas 768 50 752 734 10;
#X obj 39 283 table sampler 144000;
#X obj 192 120 adc~;
#X obj 192 179 tabwrite~ sampler;
#X obj 321 70 sel 1 0;
#X msg 307 104 stop;
#X obj 367 332 phasor~;
#X obj 371 459 dac~;
#X obj 367 368 *~ 1;
#X obj 368 412 tabread~ sampler;
#X obj 497 115 timer;
#X obj 377 205 t b f f;
#X obj 363 308 /;
#X obj 317 35 tgl 15 0 empty empty empty 17 7 0 10 -262144 -1 -1 0
1;
#X floatatom 493 152 5 0 0 0 Loop_end_point_is_set_by_timer - -, f
5;
#X floatatom 310 258 5 0 0 0 pitch_(playback_rate)_1000_is_default
- -, f 5;
#X obj 439 288 * 48;
#X floatatom 508 342 5 0 0 0 start - -, f 5;
#X obj 367 390 +~;
#X obj 442 383 * 10;
#X floatatom -1 88 5 0 0 2 transposes_pitch_by_one_step_per_whole_number
- -, f 5;
#X obj 64 111 / 12;
#X obj 64 133 t b f;
#X obj 64 155 2;
#X obj 78 177 pow;
#X obj 78 199 * 1000;
#X connect 1 0 2 0;
#X connect 1 1 2 0;
#X connect 3 0 2 0;
#X connect 3 0 9 0;
#X connect 3 1 4 0;
#X connect 3 1 9 1;
#X connect 4 0 2 0;
#X connect 5 0 7 0;
#X connect 7 0 17 0;
#X connect 8 0 6 0;
#X connect 8 0 6 1;
#X connect 9 0 13 0;
#X connect 10 0 14 0;
#X connect 10 1 11 1;
#X connect 10 2 15 0;
#X connect 11 0 5 0;
#X connect 12 0 3 0;
#X connect 13 0 10 0;
#X connect 14 0 11 0;
#X connect 15 0 7 1;
#X connect 16 0 18 0;
#X connect 17 0 8 0;
#X connect 18 0 17 1;
#X connect 19 0 20 0;
#X connect 20 0 21 0;
#X connect 21 0 22 0;
#X connect 21 1 23 1;
#X connect 22 0 23 0;
#X connect 23 0 24 0;
#X connect 24 0 14 0;
