#N canvas 695 63 710 506 10;
#X obj 121 50 tgl 15 0 empty empty empty 17 7 0 10 -262144 -1 -1 0
1;
#X floatatom 188 51 5 0 0 0 - - -, f 5;
#X obj 121 95 f;
#X obj 163 95 + 1;
#X obj 121 256 % 8;
#X obj 121 95 f;
#X obj 163 95 + 1;
#X obj 121 25 inlet;
#X obj 280 194 inlet;
#X floatatom 280 216 5 0 0 0 - - -, f 5;
#X text 320 193 sequence length control;
#X obj 188 25 inlet;
#X obj 230 100 inlet;
#X obj 121 139 sel 0;
#X obj 121 117 % 1;
#X obj 121 74 metro 1000;
#X obj 121 161 bang;
#X obj 121 184 f;
#X obj 163 184 + 1;
#X obj 121 184 f;
#X obj 163 184 + 1;
#X text 270 100 resolution control;
#X obj 82 310 line 0 7;
#X obj 121 278 t b i;
#X obj 132 345 +;
#X obj 132 378 coll sequencer;
#C restore;
#X obj 129 415 print;
#X text 315 335 to do: route coll sequencer outputs to make note;
#X connect 0 0 15 0;
#X connect 1 0 15 1;
#X connect 2 0 3 0;
#X connect 2 0 14 0;
#X connect 3 0 2 1;
#X connect 4 0 23 0;
#X connect 5 0 6 0;
#X connect 6 0 5 1;
#X connect 7 0 0 0;
#X connect 8 0 9 0;
#X connect 9 0 4 1;
#X connect 11 0 1 0;
#X connect 12 0 14 1;
#X connect 13 0 16 0;
#X connect 14 0 13 0;
#X connect 15 0 2 0;
#X connect 16 0 17 0;
#X connect 17 0 18 0;
#X connect 17 0 4 0;
#X connect 18 0 17 1;
#X connect 19 0 20 0;
#X connect 20 0 19 1;
#X connect 22 0 24 0;
#X connect 23 0 22 0;
#X connect 23 1 24 1;
#X connect 24 0 25 0;
#X connect 25 0 26 0;
