#N canvas 396 285 966 379 10;
#X obj 238 213 tgl 15 0 empty empty empty 17 7 0 10 -262144 -1 -1 0
1;
#X obj 35 263 note-test;
#X obj 35 239 bng 15 250 50 0 empty empty empty 17 7 0 10 -262144 -1
-1;
#X obj 108 263 note-timer;
#X text 33 292 to do: Replace metro objects with new-metro.pd give
all sends and receives dynamic variable names;
#X obj 188 263 testing-poly-sequencer;
#X obj 360 263 testing-sequencer-read;
#X floatatom 341 210 5 50 300 0 - - -, f 5;
#X obj 341 165 loadbang;
#X msg 341 187 120;
#X obj 266 151 f;
#X msg 202 123 16;
#X msg 245 123 12;
#X msg 288 123 8;
#X msg 331 123 6;
#X msg 374 123 4;
#X msg 417 123 3;
#X msg 460 123 2;
#X msg 503 123 1;
#X msg 159 123 48;
#X obj 410 213 tgl 15 0 empty empty empty 17 7 0 10 -262144 -1 -1 0
1;
#X obj 159 101 loadbang;
#X connect 0 0 5 1;
#X connect 2 0 1 0;
#X connect 7 0 5 2;
#X connect 7 0 6 2;
#X connect 8 0 9 0;
#X connect 9 0 7 0;
#X connect 10 0 5 0;
#X connect 10 0 6 0;
#X connect 11 0 10 0;
#X connect 12 0 10 0;
#X connect 13 0 10 0;
#X connect 14 0 10 0;
#X connect 15 0 10 0;
#X connect 16 0 10 0;
#X connect 17 0 10 0;
#X connect 18 0 10 0;
#X connect 19 0 10 0;
#X connect 20 0 6 1;
#X connect 21 0 19 0;
