#N canvas 379 50 1148 772 10;
#X obj 584 93 tgl 15 0 empty empty empty 17 7 0 10 -262144 -1 -1 0
1;
#X floatatom 652 94 5 0 0 0 - - -, f 5;
#X obj 656 306 + 1;
#X obj 656 306 + 1;
#X obj 584 68 inlet;
#X obj 973 431 inlet;
#X floatatom 973 453 5 0 0 0 - - -, f 5;
#X text 1013 430 sequence length control;
#X obj 652 68 inlet;
#X obj 892 614 +;
#X obj 892 638 coll sequencer;
#C restore;
#X obj 864 544 t b f, f 7;
#X obj 830 590 f;
#X obj 830 590 f;
#X obj 830 567 uzi 8;
#X msg 875 567 0;
#X text 656 697 to do: Make it so that \, on lower resolutions \, sequencer
gathers all notes to play on quantized note. Use same method \, with
Uzi.;
#X obj 554 258 new-metro;
#X msg 218 40 16;
#X msg 261 40 12;
#X msg 304 40 8;
#X msg 347 40 6;
#X msg 390 40 4;
#X msg 433 40 3;
#X msg 476 40 2;
#X msg 519 40 1;
#X text 172 15 move these to an inlet?;
#X obj 277 154 inlet;
#X text 317 154 resolution control;
#X floatatom 806 541 5 0 0 0 - - -, f 5;
#X msg 979 593 0;
#X obj 614 306 f;
#X obj 614 306 f;
#X obj 614 328 /;
#X text 73 410 reset - needs external control and trigger;
#X obj 657 267 bng 15 250 50 0 empty empty empty 17 7 0 10 -262144
-1 -1;
#X msg 175 40 48;
#X obj 614 350 * 48;
#X obj 571 509 f;
#X obj 553 532 +;
#X obj 614 372 t f f;
#X obj 309 200 s res;
#X obj 675 371 s count;
#X obj 36 193 sel 0;
#X obj 114 73 r res;
#X obj 259 210 f;
#X obj 277 176 t f f;
#X floatatom 259 231 5 0 0 0 - - -, f 5;
#X obj 36 146 r count;
#X obj 36 170 %, f 13;
#X obj 124 145 /;
#X obj 114 95 t b f;
#X msg 114 117 48;
#X obj 257 275 !=;
#X obj 258 249 t f f;
#X obj 257 297 sel 1;
#X obj 209 176 bng 15 250 50 0 empty empty empty 17 7 0 10 -262144
-1 -1;
#X msg 496 289 1;
#X obj 257 319 t b b;
#X obj 532 509 f;
#X msg 192 436 0;
#X obj 192 462 s reset;
#X obj 508 413 r reset;
#X obj 496 258 r reset;
#X obj 508 435 t f f;
#X floatatom 488 532 5 0 0 0 - - -, f 5;
#X floatatom 611 537 5 0 0 0 - - -, f 5;
#X obj 527 572 f;
#X obj 864 522 % 6144;
#X obj 864 499 * 8;
#X obj 875 590 - 1;
#X obj 614 282 t b b;
#X obj 572 572 f;
#X connect 0 0 17 1;
#X connect 1 0 17 2;
#X connect 2 0 31 1;
#X connect 3 0 32 1;
#X connect 4 0 0 0;
#X connect 5 0 6 0;
#X connect 6 0 68 1;
#X connect 8 0 1 0;
#X connect 9 0 10 0;
#X connect 11 0 14 0;
#X connect 11 1 9 1;
#X connect 11 1 15 0;
#X connect 11 1 30 0;
#X connect 12 0 9 0;
#X connect 12 0 70 0;
#X connect 14 0 12 0;
#X connect 15 0 12 1;
#X connect 17 0 33 1;
#X connect 17 1 71 0;
#X connect 18 0 46 0;
#X connect 19 0 46 0;
#X connect 20 0 46 0;
#X connect 21 0 46 0;
#X connect 22 0 46 0;
#X connect 23 0 46 0;
#X connect 24 0 46 0;
#X connect 25 0 46 0;
#X connect 27 0 46 0;
#X connect 31 0 2 0;
#X connect 31 0 33 0;
#X connect 32 0 3 0;
#X connect 33 0 37 0;
#X connect 35 0 31 0;
#X connect 36 0 46 0;
#X connect 37 0 40 0;
#X connect 37 0 42 0;
#X connect 38 0 39 1;
#X connect 38 0 66 0;
#X connect 39 0 67 1;
#X connect 39 0 72 0;
#X connect 40 0 59 0;
#X connect 40 1 38 1;
#X connect 43 0 45 0;
#X connect 44 0 51 0;
#X connect 45 0 47 0;
#X connect 46 0 45 1;
#X connect 46 0 56 0;
#X connect 46 1 41 0;
#X connect 47 0 17 0;
#X connect 47 0 54 0;
#X connect 48 0 49 0;
#X connect 49 0 43 0;
#X connect 50 0 49 1;
#X connect 51 0 52 0;
#X connect 51 1 50 1;
#X connect 52 0 50 0;
#X connect 53 0 55 0;
#X connect 54 0 53 1;
#X connect 54 1 53 0;
#X connect 55 0 58 0;
#X connect 56 0 49 0;
#X connect 57 0 31 1;
#X connect 58 0 57 0;
#X connect 58 1 67 0;
#X connect 59 0 39 0;
#X connect 59 0 65 0;
#X connect 60 0 61 0;
#X connect 62 0 64 0;
#X connect 63 0 31 0;
#X connect 64 0 59 0;
#X connect 64 1 38 0;
#X connect 67 0 38 0;
#X connect 68 0 11 0;
#X connect 68 0 29 0;
#X connect 69 0 68 0;
#X connect 70 0 12 1;
#X connect 71 0 31 0;
#X connect 72 0 69 0;
